<svg width="24" height="24" viewBox="0 0 24 24" fill="none" xmlns="http://www.w3.org/2000/svg">
<path d="M6.93 0.065C5.92766 0.0790862 4.93571 0.270366 4 0.63C3.20386 0.918887 2.48519 1.38774 1.9 2C1.28761 2.6066 0.810498 3.3359 0.500005 4.14C0.155536 5.07268 -0.0320044 6.056 -0.0549951 7.05C-0.119995 8.325 -0.119995 8.74 -0.119995 12C-0.119995 15.26 -0.119995 15.66 -0.0549951 16.95C-0.0320044 17.944 0.155536 18.9273 0.500005 19.86C0.799036 20.6699 1.27768 21.4016 1.9 22C2.49731 22.5975 3.21249 23.0641 4 23.37C4.93147 23.7201 5.91519 23.9111 6.91 23.935C8.185 24 8.6 24 11.86 24C15.12 24 15.52 24 16.81 23.935C17.8064 23.911 18.7918 23.7201 19.725 23.37C20.5305 23.0795 21.2603 22.6112 21.86 22C22.4698 21.401 22.9438 20.678 23.25 19.88C23.6006 18.9487 23.7916 17.9649 23.815 16.97C23.88 15.695 23.88 15.28 23.88 12.02C23.88 8.76 23.88 8.36 23.815 7.07C23.8009 6.06766 23.6096 5.07571 23.25 4.14C22.9558 3.33008 22.4803 2.59811 21.86 2C21.2606 1.39309 20.5399 0.919446 19.745 0.61C18.8106 0.266774 17.8253 0.0825563 16.83 0.065C15.555 0 15.14 0 11.88 0C8.62 0 8.225 0 6.93 0.065ZM7.03 21.75C6.26658 21.7423 5.51031 21.6018 4.795 21.335C4.27609 21.145 3.80748 20.8389 3.425 20.44C3.02615 20.0575 2.72001 19.5889 2.53 19.07C2.26374 18.3545 2.12334 17.5984 2.115 16.835C2.065 15.575 2.05 15.195 2.05 11.985C2.05 8.775 2.05 8.41 2.115 7.135C2.12043 6.37623 2.26096 5.62449 2.53 4.915C2.72122 4.39523 3.02714 3.92525 3.425 3.54C3.80911 3.1443 4.27735 2.84012 4.795 2.65C5.51031 2.38315 6.26658 2.24272 7.03 2.235C8.29 2.185 8.67 2.17 11.88 2.17C15.09 2.17 15.455 2.17 16.73 2.235C17.4888 2.24043 18.2405 2.38096 18.95 2.65C19.4661 2.84623 19.9347 3.14952 20.3251 3.53991C20.7155 3.93031 21.0188 4.39895 21.215 4.915C21.4806 5.62544 21.6211 6.37657 21.63 7.135C21.695 8.39 21.695 8.77 21.695 11.985C21.695 15.2 21.695 15.56 21.63 16.835C21.6217 17.5984 21.4813 18.3545 21.215 19.07C21.0166 19.5848 20.7125 20.0523 20.3224 20.4424C19.9323 20.8325 19.4648 21.1366 18.95 21.335C18.2399 21.6018 17.4886 21.7423 16.73 21.75C15.475 21.8 15.09 21.815 11.88 21.815C8.67 21.815 8.30501 21.815 7.03 21.75ZM16.845 5.58C16.845 5.86481 16.9295 6.14321 17.0877 6.38002C17.2459 6.61683 17.4708 6.8014 17.7339 6.91039C17.9971 7.01938 18.2866 7.04789 18.5659 6.99233C18.8453 6.93677 19.1019 6.79962 19.3032 6.59823C19.5046 6.39685 19.6418 6.14026 19.6973 5.86093C19.7529 5.5816 19.7244 5.29206 19.6154 5.02894C19.5064 4.76581 19.3218 4.54091 19.085 4.38268C18.8482 4.22445 18.5698 4.14 18.285 4.14C17.9035 4.14132 17.538 4.29345 17.2682 4.56322C16.9985 4.83299 16.8463 5.19849 16.845 5.58ZM5.725 12C5.72797 13.2179 6.09189 14.4076 6.77079 15.4187C7.44968 16.4299 8.41307 17.2171 9.53921 17.6809C10.6653 18.1447 11.9037 18.2642 13.0978 18.0244C14.2918 17.7846 15.388 17.1963 16.2478 16.3337C17.1076 15.4711 17.6924 14.373 17.9283 13.1782C18.1642 11.9833 18.0407 10.7454 17.5732 9.62075C17.1058 8.49612 16.3155 7.53529 15.3021 6.85968C14.2888 6.18408 13.0979 5.82401 11.88 5.825C11.0704 5.82631 10.269 5.98707 9.52152 6.29811C8.77405 6.60914 8.09516 7.06435 7.52362 7.63776C6.95207 8.21116 6.49906 8.89152 6.19046 9.63999C5.88185 10.3885 5.72369 11.1904 5.725 12ZM7.89001 12C7.89001 11.2089 8.1246 10.4355 8.56413 9.77772C9.00365 9.11992 9.62837 8.60723 10.3593 8.30448C11.0902 8.00173 11.8944 7.92252 12.6704 8.07686C13.4463 8.2312 14.159 8.61216 14.7184 9.17157C15.2778 9.73098 15.6588 10.4437 15.8131 11.2196C15.9675 11.9956 15.8883 12.7998 15.5855 13.5307C15.2828 14.2616 14.7701 14.8864 14.1123 15.3259C13.4545 15.7654 12.6811 16 11.89 16C10.8291 16 9.81172 15.5786 9.06158 14.8284C8.31143 14.0783 7.89001 13.0609 7.89001 12Z" fill="#262626"/>
</svg>
